
<svg xmlns="http://www.w3.org/2000/svg" xml:space="preserve" width="500px" height="500px" version="1.1" style="shape-rendering:geometricPrecision; text-rendering:geometricPrecision; image-rendering:optimizeQuality; fill-rule:evenodd; clip-rule:evenodd"
viewBox="0 0 500 500"
 xmlns:xlink="http://www.w3.org/1999/xlink"
 xmlns:xodm="http://www.corel.com/coreldraw/odm/2003">

 <g id="Capa_x0020_1">
  <metadata id="CorelCorpID_0Corel-Layer"/>
  <path fill="#ED3237" d="M46.29 12.81c28.5,38.42 49.48,73.79 88.05,102.65 57.36,42.92 98.07,52.72 165.06,68.33l0 286.64c8.65,-0.72 47.61,-30.05 55.32,-35.21l0 -276.58c-44.55,-1.65 -121.27,-13.91 -195.82,-56.22 -49.78,-28.25 -99.19,-73.53 -110.52,-91.49 0.72,0.1 30.39,24.71 34.08,27.73 42.37,29.46 90.29,50.78 140.16,64.33 32.94,8.96 89.99,20.23 125.34,22.18 18.52,1.02 34.17,3.3 55.37,3.3l0 263.17c21.54,-14.43 55.31,-63.44 55.31,-97.22 0,-67.05 0.22,-116.31 0,-201.15 -70.95,1.43 -150.74,3.01 -225.02,-13 -49.37,-10.64 -138.94,-35.81 -177.28,-69.14 79.32,31.56 149.24,48.53 223.16,51.79 68.29,3.02 145.88,-13.08 179.14,-14.91l0 -46.93c-47.2,22.65 -147.59,31.57 -207.85,31.92 -60.26,0.35 -120.18,-7.1 -184.74,-24.87 -7.61,-2.09 -16.62,-5.38 -24.79,-5.38l0 288.32c0,38.33 26.07,66.48 41.9,87.16 26.62,34.76 112.12,93.16 149.18,112.32 9.24,4.78 11.08,7.76 18.45,8.37l0 -289.99c-39.01,-20.65 -74.56,-34.42 -109.33,-65 -35.64,-31.33 -83.17,-84.45 -95.17,-131.12z"/>
 </g>
</svg>
