<svg width="333" height="332" viewBox="0 0 333 332" fill="none" xmlns="http://www.w3.org/2000/svg">
<g clip-path="url(#clip0_9849_93618)">
<path d="M332.5 253.914H0.5V254.08H332.5V253.914Z" fill="#EBEBEB"/>

<path d="M299.234 260.235H278.271V260.401H299.234V260.235Z" fill="#EBEBEB"/>
<path d="M223.166 258.435H200.982V258.601H223.166V258.435Z" fill="#EBEBEB"/>
<path d="M305.289 266.403H263.836V266.569H305.289V266.403Z" fill="#EBEBEB"/>
<path d="M48.1022 265.288H35.3334V265.454H48.1022V265.288Z" fill="#EBEBEB"/>
<path d="M74.131 265.288H54.0184V265.454H74.131V265.288Z" fill="#EBEBEB"/>
<path d="M162.609 262.486H126.381V262.652H162.609V262.486Z" fill="#EBEBEB"/>
<path d="M181.281 78.4383L143.446 116.28V242.3H276.239V78.4383H181.281Z" fill="white"/>
<path d="M276.239 242.659H143.439C143.344 242.659 143.253 242.621 143.186 242.554C143.119 242.487 143.081 242.395 143.081 242.3V116.28C143.081 116.233 143.09 116.186 143.108 116.143C143.127 116.099 143.153 116.06 143.187 116.027L181.035 78.1794C181.103 78.1137 181.193 78.0758 181.287 78.0731H276.239C276.286 78.0731 276.333 78.0824 276.376 78.1004C276.42 78.1184 276.46 78.1448 276.493 78.1781C276.526 78.2114 276.553 78.251 276.571 78.2945C276.589 78.338 276.598 78.3846 276.598 78.4317V242.3C276.598 242.347 276.589 242.394 276.571 242.437C276.553 242.481 276.526 242.52 276.493 242.554C276.46 242.587 276.42 242.613 276.376 242.632C276.333 242.65 276.286 242.659 276.239 242.659ZM143.804 241.948H275.881V78.7969H181.433L143.804 116.426V241.948Z" fill="#E0E0E0"/>
<path d="M143.446 116.28L183.146 121.399L181.281 78.4383L143.446 116.28Z" fill="#E6E6E6"/>
<path d="M143.446 116.28H181.281V78.4383L143.446 116.28Z" fill="white"/>
<path d="M181.281 116.632H143.433C143.362 116.632 143.293 116.611 143.233 116.572C143.174 116.533 143.128 116.478 143.101 116.412C143.073 116.348 143.066 116.276 143.08 116.207C143.095 116.139 143.129 116.076 143.18 116.027L181.028 78.1793C181.079 78.1301 181.143 78.0965 181.213 78.0824C181.282 78.0683 181.354 78.0743 181.42 78.0997C181.485 78.1279 181.54 78.1743 181.579 78.2332C181.618 78.2921 181.639 78.3611 181.639 78.4317V116.28C181.637 116.374 181.599 116.463 181.532 116.529C181.465 116.595 181.375 116.632 181.281 116.632ZM144.309 115.921H180.929V79.3015L144.309 115.921Z" fill="#E0E0E0"/>
<path d="M217.522 170.774L240.098 148.198C240.602 147.694 241.002 147.095 241.275 146.436C241.548 145.777 241.689 145.07 241.689 144.357C241.689 143.644 241.548 142.937 241.275 142.278C241.002 141.619 240.602 141.02 240.098 140.516C239.593 140.011 238.994 139.611 238.335 139.338C237.676 139.065 236.97 138.925 236.257 138.925C235.543 138.925 234.837 139.065 234.178 139.338C233.519 139.611 232.92 140.011 232.415 140.516L209.839 163.092L187.263 140.516C186.245 139.497 184.863 138.925 183.422 138.925C181.981 138.925 180.6 139.497 179.581 140.516C178.562 141.534 177.99 142.916 177.99 144.357C177.99 145.798 178.562 147.179 179.581 148.198L202.157 170.774L179.581 193.35C178.562 194.369 177.99 195.751 177.99 197.191C177.99 198.632 178.562 200.014 179.581 201.033C180.6 202.051 181.981 202.624 183.422 202.624C184.863 202.624 186.245 202.051 187.263 201.033L209.839 178.457L232.415 201.033C233.434 202.051 234.816 202.624 236.257 202.624C237.697 202.624 239.079 202.051 240.098 201.033C241.117 200.014 241.689 198.632 241.689 197.191C241.689 195.751 241.117 194.369 240.098 193.35L217.522 170.774Z" fill="#F0F0F0"/>
<path d="M148.572 152.056C147.298 153.328 145.572 154.043 143.771 154.043C141.971 154.043 140.244 153.328 138.971 152.056L117.185 130.264L126.786 120.662L148.572 142.481C149.836 143.754 150.546 145.475 150.546 147.269C150.546 149.062 149.836 150.783 148.572 152.056Z" fill="#F0F0F0"/>
<path d="M117.182 130.306L126.783 120.704L127.671 121.592C128.591 122.512 129.108 123.76 129.108 125.061C129.108 126.363 128.591 127.611 127.671 128.531L125.008 131.193C124.088 132.113 122.84 132.63 121.539 132.63C120.237 132.63 118.989 132.113 118.069 131.193L117.182 130.306Z" fill="#E0E0E0"/>
<path d="M56.7474 60.2314C50.159 66.8265 45.6737 75.2269 43.8585 84.3706C42.0433 93.5143 42.9797 102.991 46.5494 111.603C50.119 120.214 56.1616 127.574 63.9133 132.752C71.6651 137.931 80.778 140.694 90.1002 140.694C99.4223 140.694 108.535 137.931 116.287 132.752C124.039 127.574 130.081 120.214 133.651 111.603C137.221 102.991 138.157 93.5143 136.342 84.3706C134.527 75.2269 130.041 66.8265 123.453 60.2314C119.075 55.8486 113.875 52.3718 108.152 49.9996C102.43 47.6274 96.2952 46.4064 90.1002 46.4064C83.9051 46.4064 77.7708 47.6274 72.0479 49.9996C66.325 52.3718 61.1258 55.8486 56.7474 60.2314ZM120.73 124.214C114.673 130.272 106.955 134.397 98.5536 136.068C90.1518 137.739 81.4431 136.881 73.5288 133.603C65.6145 130.325 58.85 124.773 54.0908 117.651C49.3315 110.528 46.7913 102.154 46.7913 93.5875C46.7913 85.021 49.3315 76.647 54.0908 69.5243C58.85 62.4016 65.6145 56.8501 73.5288 53.5718C81.4431 50.2935 90.1518 49.4357 98.5536 51.1069C106.955 52.7781 114.673 56.9031 120.73 62.9605C124.753 66.9824 127.943 71.7572 130.12 77.0122C132.296 82.2672 133.417 87.8995 133.417 93.5875C133.417 99.2754 132.296 104.908 130.12 110.163C127.943 115.418 124.753 120.192 120.73 124.214Z" fill="#E0E0E0"/>
<path d="M114.881 119.952C114.569 119.951 114.264 119.858 114.005 119.684C113.746 119.51 113.544 119.264 113.424 118.976C113.305 118.687 113.274 118.37 113.334 118.064C113.395 117.758 113.545 117.477 113.765 117.256C120.031 110.972 123.55 102.461 123.55 93.5875C123.55 84.7139 120.031 76.2025 113.765 69.9192C113.604 69.7761 113.474 69.6017 113.383 69.4065C113.292 69.2114 113.242 68.9997 113.235 68.7844C113.229 68.5692 113.267 68.3549 113.346 68.1547C113.426 67.9546 113.545 67.7728 113.697 67.6205C113.85 67.4682 114.032 67.3487 114.232 67.2692C114.432 67.1897 114.646 67.152 114.861 67.1583C115.077 67.1646 115.288 67.2149 115.484 67.306C115.679 67.3971 115.853 67.5272 115.996 67.6882C122.854 74.5619 126.705 83.8748 126.705 93.5842C126.705 103.294 122.854 112.606 115.996 119.48C115.85 119.628 115.677 119.746 115.485 119.827C115.294 119.908 115.088 119.95 114.881 119.952Z" fill="#E0E0E0"/>
<path d="M55.9971 103.272C55.6418 103.272 55.2969 103.152 55.0184 102.932C54.7399 102.711 54.5442 102.403 54.4633 102.057C53.3148 97.193 53.1699 92.1461 54.0376 87.2244C54.9052 82.3027 56.7672 77.6096 59.5097 73.4318C59.7404 73.0796 60.1015 72.8334 60.5137 72.7475C60.9259 72.6616 61.3553 72.7429 61.7075 72.9736C62.0597 73.2043 62.3059 73.5655 62.3918 73.9776C62.4777 74.3898 62.3964 74.8192 62.1657 75.1714C59.6547 78.9879 57.9476 83.2758 57.1485 87.7737C56.3493 92.2717 56.475 96.8853 57.5177 101.333C57.567 101.535 57.5758 101.744 57.5436 101.949C57.5114 102.154 57.4388 102.35 57.3301 102.527C57.2214 102.703 57.0787 102.857 56.9103 102.978C56.7419 103.099 56.5511 103.185 56.349 103.232C56.2334 103.257 56.1155 103.271 55.9971 103.272Z" fill="#E0E0E0"/>
<path d="M65.3197 119.952C64.901 119.951 64.4997 119.783 64.2042 119.487C61.3598 116.653 59.004 113.369 57.2322 109.766C57.1406 109.58 57.0865 109.378 57.073 109.172C57.0595 108.965 57.0868 108.758 57.1534 108.562C57.22 108.365 57.3246 108.184 57.4611 108.029C57.5977 107.873 57.7635 107.746 57.9493 107.654C58.135 107.563 58.337 107.509 58.5436 107.495C58.7502 107.482 58.9575 107.509 59.1536 107.576C59.3496 107.642 59.5307 107.747 59.6863 107.883C59.842 108.02 59.9692 108.186 60.0608 108.371C61.6853 111.662 63.8387 114.663 66.4352 117.256C66.7304 117.552 66.8961 117.953 66.8961 118.371C66.8961 118.789 66.7304 119.191 66.4352 119.487C66.1384 119.782 65.738 119.948 65.3197 119.952Z" fill="#E0E0E0"/>
<path d="M140.626 212.749L146.833 218.956L132.419 233.37C131.681 234.107 130.682 234.522 129.639 234.522C128.597 234.522 127.597 234.107 126.859 233.37L126.207 232.718C125.47 231.98 125.056 230.981 125.056 229.938C125.056 228.896 125.47 227.896 126.207 227.159L140.621 212.744L140.626 212.749Z" fill="#F0F0F0"/>
<path d="M140.635 212.762L146.833 218.96L146.537 219.256C145.868 219.924 144.961 220.3 144.016 220.3C143.07 220.3 142.163 219.924 141.494 219.256L140.33 218.091C139.661 217.423 139.286 216.516 139.286 215.57C139.286 214.624 139.661 213.717 140.33 213.049L140.626 212.753L140.635 212.762Z" fill="#E0E0E0"/>
<path d="M189.308 179.081L174.767 193.616C173.153 195.346 172.274 197.635 172.315 200C172.357 202.366 173.316 204.622 174.989 206.294C176.663 207.966 178.921 208.923 181.287 208.962C183.652 209.001 185.94 208.12 187.668 206.504L193.551 200.628C194.79 193.169 193.282 185.513 189.308 179.081Z" fill="#F0F0F0"/>
<path d="M194.786 193.104C194.37 187.085 192.178 181.325 188.487 176.551C184.796 171.778 179.773 168.206 174.052 166.288C168.332 164.37 162.171 164.192 156.348 165.775C150.526 167.359 145.304 170.634 141.344 175.185C137.383 179.737 134.861 185.361 134.097 191.346C133.332 197.331 134.36 203.409 137.05 208.809C139.74 214.21 143.971 218.692 149.209 221.688C154.446 224.684 160.454 226.06 166.473 225.64C174.542 225.079 182.057 221.336 187.366 215.235C192.676 209.133 195.345 201.173 194.786 193.104ZM136.414 197.168C136.03 191.642 137.292 186.126 140.043 181.317C142.793 176.509 146.908 172.624 151.866 170.154C156.825 167.684 162.404 166.74 167.899 167.441C173.394 168.142 178.558 170.457 182.737 174.093C186.917 177.729 189.924 182.523 191.379 187.868C192.833 193.213 192.67 198.87 190.91 204.122C189.15 209.375 185.872 213.987 181.49 217.377C177.109 220.766 171.82 222.78 166.294 223.164C158.885 223.678 151.574 221.229 145.971 216.354C140.367 211.479 136.93 204.577 136.414 197.168Z" fill="#E0E0E0"/>
<path d="M148.824 213.084C146.474 211.047 144.55 208.566 143.161 205.784C141.772 203.001 140.946 199.972 140.73 196.869C140.715 196.732 140.727 196.593 140.767 196.461C140.807 196.329 140.873 196.206 140.961 196.101C141.05 195.995 141.159 195.908 141.282 195.845C141.405 195.782 141.539 195.745 141.677 195.736C141.814 195.726 141.952 195.745 142.083 195.79C142.213 195.836 142.333 195.907 142.435 196C142.537 196.093 142.619 196.205 142.676 196.331C142.734 196.456 142.765 196.592 142.769 196.73C143.176 202.448 145.831 207.772 150.155 211.536C154.478 215.301 160.116 217.199 165.836 216.816C166.105 216.797 166.371 216.887 166.575 217.064C166.778 217.242 166.903 217.493 166.922 217.762C166.94 218.032 166.851 218.297 166.673 218.501C166.496 218.704 166.245 218.829 165.975 218.848C162.878 219.063 159.769 218.665 156.825 217.676C153.882 216.687 151.163 215.126 148.824 213.084Z" fill="#E0E0E0"/>
<path d="M185.517 189.904C185.366 189.773 185.257 189.599 185.205 189.406C184.405 186.564 183.035 183.915 181.178 181.62C179.32 179.326 177.015 177.434 174.402 176.06C174.173 175.928 174.004 175.713 173.93 175.46C173.856 175.207 173.883 174.935 174.004 174.701C174.126 174.467 174.333 174.29 174.583 174.205C174.833 174.12 175.106 174.135 175.344 174.247C178.205 175.751 180.728 177.822 182.762 180.333C184.795 182.845 186.295 185.744 187.17 188.855C187.207 188.984 187.217 189.119 187.201 189.252C187.185 189.385 187.142 189.514 187.076 189.63C187.01 189.747 186.922 189.849 186.816 189.932C186.71 190.014 186.589 190.075 186.46 190.11C186.298 190.155 186.127 190.159 185.963 190.123C185.799 190.088 185.646 190.012 185.517 189.904Z" fill="#E0E0E0"/>
<path d="M162.111 173.39C161.908 173.21 161.784 172.957 161.766 172.686C161.747 172.417 161.836 172.152 162.013 171.948C162.189 171.744 162.44 171.618 162.709 171.598C165.298 171.418 167.9 171.662 170.411 172.321C170.542 172.356 170.664 172.416 170.772 172.497C170.88 172.579 170.97 172.682 171.038 172.798C171.107 172.915 171.151 173.044 171.169 173.178C171.187 173.312 171.179 173.449 171.145 173.58C171.11 173.71 171.05 173.833 170.968 173.941C170.887 174.048 170.784 174.139 170.668 174.207C170.551 174.275 170.422 174.32 170.288 174.338C170.153 174.356 170.017 174.348 169.886 174.313C167.595 173.707 165.219 173.483 162.855 173.649C162.583 173.663 162.316 173.57 162.111 173.39Z" fill="#E0E0E0"/>
<path d="M166.5 283.9C237.603 283.9 295.243 280.535 295.243 276.383C295.243 272.232 237.603 268.867 166.5 268.867C95.3972 268.867 37.757 272.232 37.757 276.383C37.757 280.535 95.3972 283.9 166.5 283.9Z" fill="#F5F5F5"/>
<path d="M92.0125 96.8643C86.6606 102.249 95.7574 110.609 89.7482 114.447C94.6552 116.91 111.853 120.038 116.308 110.35C113.061 107.827 115.319 101.625 112.324 95.6691C107.842 86.8379 86.6606 90.7489 92.0125 96.8643Z" fill="#263238"/>
<path d="M92.4972 96.7249C90.8306 96.446 85.1932 99.2481 89.3897 106.771C92.7694 112.853 89.9541 113.285 89.9541 113.285C89.9541 113.285 93.2741 113.378 91.2821 108.856C89.1706 104.029 88.1812 99.0223 92.4972 96.7249Z" fill="#263238"/>
<path d="M131.972 144.493C131.767 144.117 131.422 143.837 131.012 143.713C130.602 143.589 130.16 143.63 129.781 143.829L129.389 144.035C129.263 144.101 129.024 144.261 128.831 144.373C128.639 144.486 128.413 144.613 128.2 144.719C127.782 144.929 127.349 145.111 126.906 145.263C126.085 145.561 125.222 145.724 124.349 145.748C123.548 145.757 122.75 145.629 121.992 145.369C121.51 145.191 121.046 144.968 120.604 144.705C120.033 143.444 119.489 142.169 119.024 140.854C118.46 139.32 117.962 137.753 117.523 136.166C117.085 134.579 116.7 132.973 116.381 131.359C116.215 130.556 116.069 129.746 115.936 128.942L115.757 127.74C115.697 127.355 115.644 126.917 115.611 126.611V126.479C115.523 125.598 115.089 124.789 114.404 124.228C113.719 123.668 112.84 123.403 111.959 123.491C111.079 123.579 110.269 124.013 109.709 124.698C109.148 125.383 108.883 126.262 108.971 127.143C109.018 127.707 109.057 128.139 109.117 128.61C109.177 129.082 109.243 129.533 109.31 129.991C109.456 130.908 109.622 131.811 109.808 132.714C110.177 134.508 110.642 136.281 111.202 138.026C111.461 138.902 111.78 139.765 112.079 140.635C112.377 141.505 112.743 142.355 113.121 143.198C113.846 144.902 114.668 146.563 115.584 148.172L115.664 148.318C115.902 148.75 116.26 149.105 116.693 149.34C117.948 150.024 119.305 150.504 120.711 150.761C122.155 151.016 123.635 150.985 125.066 150.668C127.087 150.199 128.944 149.192 130.438 147.753C130.684 147.527 130.916 147.295 131.102 147.049C131.288 146.804 131.514 146.571 131.766 146.226C131.961 145.986 132.084 145.696 132.12 145.389C132.156 145.083 132.105 144.772 131.972 144.493Z" fill="#FF8B7B"/>
<path d="M136.388 138.278H136.195C135.559 138.264 134.929 138.398 134.354 138.667C133.778 138.937 133.272 139.335 132.875 139.832L129.668 143.856V146.605C132.244 147.627 135.511 144.871 135.511 144.871L137.164 144.453C137.721 144.314 138.206 143.974 138.526 143.498C138.846 143.022 138.979 142.445 138.898 141.877L138.658 140.263C138.581 139.715 138.308 139.213 137.892 138.849C137.475 138.485 136.941 138.282 136.388 138.278Z" fill="#FF8B7B"/>
<path d="M115.525 122.76C117.669 124.965 117.802 131.545 117.802 131.545L109.223 138.451C109.223 138.451 105.698 128.69 107.65 125.244C109.303 122.322 112.789 119.952 115.525 122.76Z" fill="#1d72b8"/>
<g opacity="0.2">
<path d="M115.525 122.76C117.669 124.965 117.802 131.545 117.802 131.545L109.223 138.451C109.223 138.451 105.698 128.69 107.65 125.244C109.303 122.322 112.789 119.952 115.525 122.76Z" fill="white"/>
</g>
<path d="M101.328 270.693L106.069 271.211L106.72 258.329L101.979 257.805L101.328 270.693Z" fill="#FF8B7B"/>
<path d="M106.846 268.117H101.275C101.163 268.113 101.054 268.153 100.971 268.229C100.888 268.304 100.837 268.409 100.83 268.522L100.459 273.787C100.458 274.063 100.566 274.327 100.758 274.524C100.951 274.722 101.212 274.836 101.488 274.843C103.838 274.843 103.865 274.843 106.8 274.843H114.708C117.138 274.843 117.145 272.379 116.096 272.154C111.375 271.158 109.535 269.777 107.869 268.462C107.576 268.236 107.216 268.115 106.846 268.117Z" fill="#263238"/>
<path opacity="0.2" d="M106.72 258.336L106.381 264.976H101.614L101.979 257.811L106.72 258.336Z" fill="black"/>
<path d="M109.276 155.555C109.276 155.555 113.38 189.904 113.38 205.176C110.146 226.424 107.404 263.714 107.404 263.714L100.844 263.542C100.844 263.542 97.8623 222.931 100.625 205.395C97.0854 189.685 92.7163 153.43 92.7163 153.43L109.276 155.555Z" fill="#263238"/>
<path opacity="0.2" d="M96.6273 165.117C95.8454 165.461 95.0868 165.856 94.3564 166.299C95.2594 173.078 96.448 181.611 97.7096 189.486C99.861 183.005 98.699 168.756 96.6273 165.117Z" fill="black"/>
<path d="M49.9879 258.734L53.8989 261.463L60.6451 250.467L56.7342 247.738L49.9879 258.734Z" fill="#FF8B7B"/>
<path d="M54.8882 260.022L51.5682 255.554C51.505 255.462 51.4084 255.399 51.2991 255.378C51.1899 255.357 51.0767 255.379 50.9839 255.441L46.5351 258.296C46.3132 258.459 46.1644 258.703 46.1209 258.975C46.0774 259.248 46.1427 259.526 46.3027 259.75C47.6905 261.643 47.717 261.656 49.4634 264.006C50.5457 265.447 52.7037 268.349 54.191 270.348C55.6784 272.346 57.6239 270.832 57.1724 269.85C55.1804 265.474 55.1804 263.21 55.2202 261.058C55.227 260.686 55.1103 260.322 54.8882 260.022Z" fill="#263238"/>
<path opacity="0.2" d="M60.6385 250.467L57.1658 256.138L52.9759 253.854L56.7342 247.738L60.6385 250.467Z" fill="black"/>
<path d="M73.9782 263.342C70.5852 263.342 63.5202 263.342 63.4007 258.349C63.3078 254.432 68.155 252.805 72.3382 252.606C72.8016 252.583 73.265 252.652 73.7017 252.809C74.1384 252.966 74.54 253.207 74.8835 253.519C75.2269 253.831 75.5055 254.208 75.7034 254.628C75.9013 255.047 76.0145 255.502 76.0366 255.965V256.231C80.7776 256.005 83.8453 254.969 84.9674 253.203C87.4973 249.219 82.6501 238.934 77.9689 228.994C72.4577 217.301 66.2161 204.054 66.0966 191.365C66.0922 190.901 66.1792 190.441 66.3527 190.01C66.5262 189.58 66.7827 189.188 67.1077 188.857C67.4326 188.526 67.8196 188.262 68.2465 188.081C68.6734 187.899 69.1319 187.803 69.5958 187.799C70.5265 187.801 71.419 188.169 72.0801 188.824C72.7413 189.479 73.1178 190.368 73.1283 191.298C73.2346 202.44 79.1043 214.943 84.3234 225.979C90.2994 238.715 95.5118 249.717 90.897 256.988C88.221 261.264 82.6766 263.342 73.9782 263.342Z" fill="#1d72b8"/>
<path d="M104.024 154.878C104.024 154.878 92.6964 194.134 87.1653 208.37C76.4483 227.002 58.6664 255.514 58.6664 255.514L52.9892 252.194C52.9892 252.194 66.2692 219.259 75.2 203.921C77.597 187.985 86.6606 152.62 86.6606 152.62L104.024 154.878Z" fill="#263238"/>
<path d="M55.9108 263.23C56.1361 263.602 56.4832 263.886 56.8935 264.033C57.0136 264.062 57.1394 264.057 57.2567 264.018C57.374 263.979 57.4782 263.908 57.5575 263.814C57.6127 263.763 57.6549 263.7 57.6803 263.629C57.7057 263.559 57.7137 263.483 57.7036 263.409C57.6239 262.612 55.5655 261.576 55.1538 261.377C55.1298 261.367 55.1031 261.366 55.0786 261.375C55.0542 261.384 55.0337 261.401 55.021 261.423C55.005 261.448 54.9965 261.477 54.9965 261.506C54.9965 261.536 55.005 261.565 55.021 261.589C55.2649 262.163 55.5628 262.712 55.9108 263.23ZM57.3251 263.23C57.3836 263.303 57.4224 263.389 57.438 263.482C57.4412 263.508 57.438 263.534 57.4288 263.558C57.4195 263.582 57.4044 263.604 57.3849 263.621C57.3313 263.682 57.2625 263.728 57.1855 263.754C57.1085 263.779 57.0261 263.784 56.9466 263.767C56.5084 263.681 55.9307 262.971 55.373 261.848C56.0961 262.185 56.7564 262.643 57.3251 263.203V263.23Z" fill="#1d72b8"/>
<path d="M54.9878 261.616L55.0277 261.649C55.6917 262.014 57.4181 262.313 57.7966 261.762C57.8601 261.661 57.891 261.544 57.8851 261.425C57.8791 261.306 57.8366 261.192 57.7634 261.098C57.0994 259.923 55.1074 261.304 55.021 261.364C55.0012 261.379 54.9855 261.4 54.9751 261.423C54.9647 261.446 54.96 261.471 54.9613 261.496C54.9586 261.538 54.9678 261.579 54.9878 261.616ZM57.511 261.231C57.5304 261.254 57.5481 261.278 57.5642 261.304C57.6372 261.43 57.6505 261.523 57.6106 261.576C57.3915 261.895 56.1166 261.782 55.373 261.49C55.871 261.191 57.033 260.587 57.511 261.231Z" fill="#1d72b8"/>
<path d="M110.06 269.212C110.495 269.252 110.931 269.142 111.295 268.9C111.387 268.819 111.455 268.714 111.492 268.597C111.528 268.48 111.531 268.355 111.501 268.236C111.491 268.161 111.465 268.089 111.423 268.026C111.382 267.963 111.327 267.91 111.262 267.871C110.598 267.466 108.52 268.495 108.114 268.708C108.092 268.72 108.074 268.74 108.064 268.764C108.055 268.789 108.054 268.815 108.061 268.84C108.071 268.868 108.088 268.893 108.11 268.913C108.132 268.932 108.159 268.946 108.188 268.953C108.801 269.103 109.429 269.19 110.06 269.212ZM110.883 268.063C110.978 268.057 111.072 268.078 111.156 268.123C111.189 268.123 111.222 268.17 111.235 268.249C111.253 268.329 111.248 268.411 111.223 268.489C111.197 268.566 111.151 268.634 111.089 268.688C110.764 268.986 109.848 269.026 108.612 268.807C109.31 268.433 110.067 268.181 110.85 268.063H110.883Z" fill="#1d72b8"/>
<path d="M108.188 268.986H108.234C108.898 268.681 110.193 267.466 109.98 266.835C109.936 266.731 109.862 266.642 109.768 266.579C109.673 266.517 109.562 266.483 109.449 266.483C108.121 266.33 108.028 268.734 108.022 268.834C108.022 268.86 108.028 268.886 108.041 268.909C108.054 268.932 108.072 268.952 108.095 268.966C108.123 268.982 108.155 268.989 108.188 268.986ZM109.383 266.729H109.476C109.615 266.729 109.701 266.789 109.721 266.855C109.848 267.22 108.998 268.183 108.314 268.601C108.373 268.024 108.586 266.729 109.396 266.729H109.383Z" fill="#1d72b8"/>
<path d="M86.6606 152.654L109.276 155.549C114.376 138.378 116.056 130.084 116.507 126.094C116.627 125.091 116.392 124.077 115.844 123.229C115.297 122.38 114.47 121.749 113.506 121.446C112.178 121.021 110.465 120.516 108.765 120.118C108.188 119.965 107.597 119.825 107.019 119.693C103.633 119.006 100.203 118.562 96.7534 118.365C96.2422 118.318 95.7375 118.292 95.2262 118.265C94.2236 118.212 93.2342 118.199 92.3312 118.199C91.6534 118.198 90.9829 118.338 90.3624 118.611C89.7418 118.883 89.1849 119.282 88.727 119.782C88.2691 120.282 87.9204 120.871 87.7029 121.513C87.4855 122.155 87.4041 122.835 87.4641 123.511C87.6434 125.503 87.7828 127.355 87.889 129.055C88.1414 133.039 88.221 136.226 88.1613 139.015C88.0256 143.594 87.5237 148.155 86.6606 152.654Z" fill="#1d72b8"/>
<g opacity="0.3">
<path d="M86.6606 152.654L109.276 155.549C114.376 138.378 116.056 130.084 116.507 126.094C116.627 125.091 116.392 124.077 115.844 123.229C115.297 122.38 114.47 121.749 113.506 121.446C112.178 121.021 110.465 120.516 108.765 120.118C108.188 119.965 107.597 119.825 107.019 119.693C103.633 119.006 100.203 118.562 96.7534 118.365C96.2422 118.318 95.7375 118.292 95.2262 118.265C94.2236 118.212 93.2342 118.199 92.3312 118.199C91.6534 118.198 90.9829 118.338 90.3624 118.611C89.7418 118.883 89.1849 119.282 88.727 119.782C88.2691 120.282 87.9204 120.871 87.7029 121.513C87.4855 122.155 87.4041 122.835 87.4641 123.511C87.6434 125.503 87.7828 127.355 87.889 129.055C88.1414 133.039 88.221 136.226 88.1613 139.015C88.0256 143.594 87.5237 148.155 86.6606 152.654Z" fill="white"/>
</g>
<path opacity="0.3" d="M88.148 138.988C91.136 135.124 92.2183 130.702 91.2489 128.265L87.8758 129.022C88.148 132.993 88.221 136.193 88.148 138.988Z" fill="#1d72b8"/>
<path d="M108.765 120.078C108.181 119.925 107.597 119.786 107.019 119.653C103.63 118.969 100.198 118.525 96.7468 118.325C96.2355 118.285 95.7309 118.258 95.2262 118.232L94.3431 118.192L95.0071 119.354C95.1001 119.513 97.3577 123.205 102.975 127.176L104.177 128.013L105.332 127.129C106.445 126.331 107.354 125.282 107.986 124.068C108.618 122.853 108.956 121.507 108.971 120.138L108.765 120.078Z" fill="white"/>
<path d="M99.2434 111.499C99.031 114.294 98.3736 117.143 96.7468 118.338C96.7468 118.338 98.8185 121.784 104.184 125.549C107.543 122.979 107.019 119.653 107.019 119.653C103.447 118.325 103.699 115.848 105.206 111.897L102.417 110.397C102.177 110.131 101.863 109.943 101.517 109.854C101.17 109.766 100.804 109.781 100.466 109.899C100.128 110.016 99.8317 110.231 99.6143 110.515C99.3969 110.8 99.2679 111.142 99.2434 111.499Z" fill="#FF8B7B"/>
<path opacity="0.2" d="M102.417 110.397C102.191 110.147 101.901 109.965 101.578 109.87C101.255 109.775 100.912 109.771 100.587 109.859C100.262 109.947 99.9673 110.124 99.7361 110.368C99.5049 110.613 99.3459 110.917 99.2766 111.247C100.336 113.382 102.044 115.128 104.157 116.233C104.233 114.736 104.586 113.265 105.2 111.897L102.417 110.397Z" fill="black"/>
<path d="M94.9009 102.734C96.2886 108.132 96.7601 110.443 100.06 112.694C105.02 116.107 111.348 113.225 111.594 107.528C111.826 102.395 109.522 94.4274 103.759 93.2853C102.486 93.0252 101.169 93.0954 99.931 93.4891C98.6935 93.8828 97.5774 94.5869 96.6893 95.5343C95.8011 96.4818 95.1704 97.6409 94.8573 98.9013C94.5443 100.162 94.5593 101.481 94.9009 102.734Z" fill="#FF8B7B"/>
<path d="M108.639 94.4009C105.388 97.2911 101.531 99.4169 97.351 100.623C97.351 100.623 101.474 109.394 93.7588 107.183C91.5211 99.7129 93.7588 95.8351 95.7508 94.0091C101.886 92.0171 106.202 91.3531 108.639 94.4009Z" fill="#263238"/>
<path d="M94.6419 108.053C95.0943 109.031 95.9156 109.79 96.9261 110.164C98.2541 110.642 99.0442 109.5 98.7587 108.172C98.4998 106.984 97.4905 105.297 96.1027 105.383C95.8026 105.409 95.5134 105.509 95.261 105.673C95.0086 105.838 94.8009 106.062 94.6563 106.326C94.5116 106.59 94.4346 106.886 94.4321 107.188C94.4296 107.489 94.5017 107.786 94.6419 108.053Z" fill="#FF8B7B"/>
<path d="M86.4946 151.286L85.2131 153.178C85.1135 153.324 85.2795 153.51 85.5385 153.543L109.257 156.584C109.462 156.584 109.642 156.531 109.675 156.405L110.14 154.413C110.14 154.274 110.007 154.134 109.788 154.101L86.8798 151.166C86.8107 151.15 86.7387 151.153 86.671 151.174C86.6033 151.195 86.5424 151.233 86.4946 151.286Z" fill="#1d72b8"/>
<path d="M89.237 154.241L88.6261 154.161C88.5066 154.161 88.4202 154.068 88.4402 153.995L89.0643 151.399C89.0881 151.355 89.126 151.321 89.1718 151.301C89.2177 151.282 89.2688 151.279 89.3166 151.292L89.9342 151.372C90.0537 151.372 90.14 151.458 90.1201 151.538L89.4959 154.128C89.476 154.207 89.3631 154.254 89.237 154.241Z" fill="#263238"/>
<path d="M107.504 156.578L106.893 156.505C106.773 156.505 106.687 156.412 106.707 156.332L107.331 153.743C107.331 153.67 107.464 153.616 107.583 153.63L108.201 153.709C108.32 153.709 108.407 153.802 108.387 153.875L107.763 156.472C107.743 156.545 107.63 156.598 107.504 156.578Z" fill="#263238"/>
<path d="M98.3736 155.409L97.7627 155.329C97.6366 155.329 97.5502 155.243 97.5702 155.163L98.1943 152.574C98.1943 152.494 98.3271 152.448 98.4533 152.461L99.0642 152.541C99.1837 152.541 99.27 152.634 99.2567 152.707L98.6259 155.303C98.6126 155.376 98.4931 155.422 98.3736 155.409Z" fill="#263238"/>
<path d="M104.15 102.502C104.23 102.947 104.536 103.265 104.814 103.206C105.093 103.146 105.273 102.747 105.186 102.302C105.1 101.858 104.794 101.539 104.522 101.599C104.25 101.658 104.084 102.057 104.15 102.502Z" fill="#263238"/>
<path d="M109.17 101.539C109.257 101.984 109.562 102.296 109.834 102.243C110.106 102.19 110.292 101.778 110.206 101.333C110.12 100.888 109.814 100.576 109.542 100.629C109.27 100.682 109.091 101.094 109.17 101.539Z" fill="#263238"/>
<path d="M109.396 100.682L110.405 100.164C110.405 100.164 110.06 101.107 109.396 100.682Z" fill="#263238"/>
<path d="M107.842 102.535C108.436 103.47 109.153 104.321 109.974 105.065C109.779 105.271 109.541 105.433 109.277 105.537C109.014 105.642 108.73 105.687 108.446 105.669L107.842 102.535Z" fill="#FF5652"/>
<path d="M104.708 107.462C104.688 107.485 104.677 107.514 104.676 107.545C104.675 107.576 104.685 107.606 104.704 107.63C104.722 107.654 104.749 107.671 104.779 107.678C104.809 107.685 104.84 107.681 104.868 107.668C105.369 107.412 105.924 107.278 106.488 107.278C107.051 107.278 107.606 107.412 108.108 107.668C108.138 107.685 108.173 107.689 108.207 107.681C108.24 107.672 108.269 107.651 108.287 107.621C108.305 107.591 108.311 107.555 108.304 107.52C108.296 107.486 108.276 107.455 108.247 107.435C107.706 107.158 107.106 107.013 106.498 107.013C105.889 107.013 105.29 107.158 104.748 107.435C104.748 107.435 104.748 107.448 104.708 107.462Z" fill="#263238"/>
<path d="M102.417 101.134C102.458 101.109 102.491 101.072 102.51 101.028C102.649 100.725 102.857 100.459 103.118 100.253C103.379 100.046 103.685 99.9044 104.011 99.839C104.046 99.8349 104.08 99.8239 104.11 99.8066C104.141 99.7893 104.168 99.7661 104.19 99.7383C104.211 99.7105 104.227 99.6787 104.236 99.6447C104.246 99.6106 104.248 99.5752 104.243 99.5402C104.24 99.5055 104.23 99.4718 104.213 99.4412C104.197 99.4105 104.174 99.3835 104.147 99.3618C104.119 99.3401 104.088 99.3242 104.054 99.3149C104.021 99.3056 103.986 99.3032 103.951 99.3078C103.536 99.3854 103.146 99.5607 102.812 99.8194C102.478 100.078 102.211 100.413 102.032 100.795C102.006 100.848 101.999 100.907 102.01 100.964C102.021 101.022 102.051 101.073 102.095 101.112C102.139 101.151 102.194 101.174 102.253 101.177C102.311 101.181 102.369 101.166 102.417 101.134Z" fill="#263238"/>
<path d="M110.664 97.7674L110.697 97.7342C110.718 97.7054 110.732 97.673 110.74 97.6387C110.747 97.6044 110.748 97.569 110.742 97.5344C110.736 97.4998 110.723 97.4668 110.704 97.4372C110.685 97.4077 110.66 97.3822 110.631 97.3623C110.288 97.1156 109.891 96.9543 109.473 96.892C109.055 96.8296 108.628 96.8679 108.227 97.0037C108.163 97.0316 108.113 97.083 108.085 97.1472C108.058 97.2115 108.057 97.2837 108.081 97.349C108.108 97.4141 108.159 97.466 108.224 97.4934C108.288 97.5208 108.361 97.5214 108.427 97.4951C108.745 97.3909 109.083 97.3643 109.413 97.4174C109.743 97.4705 110.056 97.6019 110.326 97.8005C110.377 97.8368 110.439 97.8535 110.501 97.8474C110.563 97.8413 110.621 97.8128 110.664 97.7674Z" fill="#263238"/>
<path d="M104.396 101.645L105.405 101.134C105.405 101.134 105.014 102.07 104.396 101.645Z" fill="#263238"/>
<path d="M69.629 194.864C68.6979 194.864 67.8044 194.496 67.1429 193.841C66.4813 193.186 66.1053 192.296 66.0966 191.365C66.0036 181.936 69.1443 173.975 75.1801 168.344C82.6102 161.412 94.197 158.191 107.822 159.267C117.377 160.024 123.506 157.7 130.598 154.997C131.766 154.559 132.941 154.108 134.15 153.669C135.03 153.349 136.002 153.391 136.851 153.787C137.701 154.183 138.358 154.901 138.678 155.781C138.999 156.662 138.957 157.633 138.561 158.483C138.165 159.332 137.447 159.989 136.567 160.309C135.392 160.734 134.25 161.173 133.114 161.604C125.883 164.353 118.413 167.189 107.265 166.312C95.6446 165.389 85.9634 167.945 80.0007 173.51C75.3527 177.813 73.0885 183.795 73.1615 191.298C73.1659 191.762 73.0789 192.222 72.9054 192.653C72.7319 193.083 72.4753 193.475 72.1504 193.806C71.8255 194.137 71.4385 194.401 71.0116 194.582C70.5846 194.764 70.1261 194.86 69.6622 194.864H69.629Z" fill="#1d72b8"/>
<path d="M151.324 165.297L137.115 170.503C135.93 170.937 134.62 170.882 133.475 170.351C132.329 169.82 131.442 168.855 131.007 167.67L125.139 151.653C124.705 150.467 124.76 149.157 125.291 148.012C125.822 146.867 126.787 145.979 127.972 145.545L142.181 140.339L151.318 165.278L151.324 165.297Z" fill="#1d72b8"/>
<path opacity="0.7" d="M151.324 165.297L137.115 170.503C135.93 170.937 134.62 170.882 133.475 170.351C132.329 169.82 131.442 168.855 131.007 167.67L125.139 151.653C124.705 150.467 124.76 149.157 125.291 148.012C125.822 146.867 126.787 145.979 127.972 145.545L142.181 140.339L151.318 165.278L151.324 165.297Z" fill="white"/>
<path opacity="0.2" d="M135.85 142.654L142.191 140.336L151.328 165.29L144.986 167.614C144.564 167.205 144.242 166.705 144.044 166.153L136.076 144.38C135.867 143.83 135.79 143.239 135.85 142.654Z" fill="#1d72b8"/>
<path d="M156.431 146.552L155.808 146.78L157.329 150.933L157.952 150.704L156.431 146.552Z" fill="#1d72b8"/>
<path d="M154.847 144.194L152.609 138.072C152.225 137.034 151.533 136.138 150.625 135.506C149.716 134.873 148.636 134.534 147.53 134.533C146.9 134.531 146.275 134.641 145.684 134.858L141.646 136.339L141.414 135.715L145.458 134.234C146.121 133.991 146.823 133.867 147.53 133.869C148.773 133.872 149.986 134.255 151.006 134.967C152.025 135.679 152.802 136.686 153.233 137.853L155.471 143.975L154.847 144.194Z" fill="#1d72b8"/>
<path d="M151.435 167.085L157.364 164.941C159.301 164.24 160.304 162.102 159.603 160.164L151.555 137.913C150.854 135.976 148.716 134.973 146.778 135.674L140.849 137.819C138.911 138.519 137.909 140.658 138.61 142.595L146.658 164.846C147.359 166.784 149.497 167.786 151.435 167.085Z" fill="#1d72b8"/>
<path d="M148.041 144.666C148.176 145.036 148.199 145.438 148.105 145.821C148.012 146.204 147.807 146.551 147.517 146.817C147.227 147.084 146.864 147.258 146.474 147.319C146.084 147.379 145.686 147.322 145.328 147.155C144.971 146.989 144.671 146.72 144.467 146.383C144.262 146.046 144.163 145.656 144.18 145.262C144.197 144.868 144.331 144.488 144.565 144.17C144.798 143.853 145.12 143.611 145.491 143.477C145.987 143.297 146.534 143.322 147.012 143.544C147.49 143.767 147.86 144.17 148.041 144.666Z" fill="#263238"/>
<path d="M153.001 158.205C153.136 158.575 153.158 158.976 153.064 159.359C152.971 159.742 152.766 160.088 152.476 160.354C152.186 160.621 151.823 160.795 151.434 160.855C151.045 160.915 150.647 160.859 150.289 160.693C149.932 160.527 149.632 160.259 149.428 159.922C149.223 159.586 149.122 159.196 149.139 158.803C149.156 158.409 149.288 158.029 149.521 157.711C149.753 157.393 150.075 157.151 150.444 157.016C150.69 156.926 150.952 156.885 151.213 156.896C151.475 156.907 151.732 156.97 151.969 157.08C152.207 157.191 152.42 157.347 152.597 157.54C152.774 157.733 152.911 157.959 153.001 158.205Z" fill="#263238"/>
<path d="M94.788 156.604L94.7349 156.545C93.699 155.509 92.6034 154.38 91.6141 153.225C90.6247 152.069 89.6553 150.914 88.7722 149.719C87.9063 148.553 87.1188 147.33 86.415 146.06C85.9113 145.151 85.4827 144.203 85.1334 143.225C85.5318 141.897 85.9568 140.569 86.4614 139.294C87.0391 137.76 87.6898 136.253 88.4003 134.765C89.1108 133.278 89.8678 131.817 90.6845 130.39C91.0829 129.673 91.5012 128.962 91.9328 128.265L92.5968 127.242C92.8026 126.91 93.0483 126.578 93.221 126.293L93.294 126.187C93.766 125.467 93.9402 124.592 93.78 123.747C93.6197 122.902 93.1374 122.151 92.4349 121.655C91.7323 121.158 90.8643 120.953 90.0138 121.084C89.1633 121.215 88.3967 121.67 87.8758 122.355C87.5438 122.807 87.2914 123.165 87.0258 123.557C86.7602 123.949 86.5212 124.341 86.2689 124.732C85.7842 125.516 85.3127 126.306 84.8612 127.11C83.9629 128.712 83.1495 130.361 82.4243 132.05C82.0525 132.886 81.7603 133.743 81.3818 134.599C81.0034 135.456 80.751 136.326 80.4854 137.216C79.9218 138.979 79.4585 140.772 79.0977 142.587V142.74C78.9946 143.225 79.0291 143.728 79.1973 144.194C79.8407 145.897 80.695 147.512 81.7404 149.002C82.7248 150.416 83.8218 151.748 85.0206 152.986C86.1884 154.178 87.4279 155.298 88.7323 156.339C90.0362 157.378 91.4045 158.334 92.8292 159.201C93.1751 159.403 93.583 159.472 93.9763 159.395C94.3696 159.318 94.7214 159.101 94.9658 158.783C95.2101 158.466 95.3302 158.07 95.3036 157.67C95.277 157.27 95.1055 156.893 94.8212 156.611L94.788 156.604Z" fill="#FF8B7B"/>
<path d="M102.504 159.904L102.417 159.732C102.142 159.156 101.736 158.653 101.233 158.261C100.729 157.869 100.141 157.6 99.5157 157.474L94.4759 156.452L92.0125 157.68C92.2781 160.442 96.2222 162.096 96.2222 162.096L97.3444 163.377C97.7228 163.807 98.2465 164.082 98.815 164.149C99.3836 164.217 99.957 164.072 100.425 163.742L101.753 162.793C102.2 162.478 102.52 162.015 102.657 161.486C102.795 160.957 102.74 160.397 102.504 159.904Z" fill="#FF8B7B"/>
<path d="M90.2662 118.624C87.4707 119.905 84.496 124.341 84.496 124.341L90.472 135.529C90.472 135.529 97.2647 127.7 96.6937 123.783C96.2289 120.456 93.8252 116.99 90.2662 118.624Z" fill="#1d72b8"/>
<g opacity="0.3">
<path d="M90.2662 118.624C87.4707 119.905 84.496 124.341 84.496 124.341L90.472 135.529C90.472 135.529 97.2647 127.7 96.6937 123.783C96.2289 120.456 93.8252 116.99 90.2662 118.624Z" fill="white"/>
</g>
<path d="M281.565 265.221C275.715 265.221 269.964 264.02 267.176 260.381C253.975 243.117 254.095 208.39 254.208 174.785C254.274 156.691 255.702 139.593 253.69 126.313C252.508 118.484 248.378 113.112 244.208 110.337C238.019 106.247 229.52 108.444 225.888 109.381C225.436 109.507 224.963 109.542 224.497 109.483C224.03 109.425 223.581 109.274 223.174 109.039C222.767 108.805 222.411 108.491 222.126 108.117C221.842 107.743 221.635 107.317 221.517 106.862C221.4 106.407 221.374 105.933 221.442 105.468C221.51 105.004 221.67 104.557 221.912 104.155C222.155 103.752 222.475 103.403 222.855 103.126C223.234 102.849 223.665 102.65 224.122 102.541C228.657 101.366 239.294 98.6239 248.099 104.441C254.042 108.365 259.181 115.37 260.675 125.257C262.767 139.068 261.339 156.418 261.273 174.785C261.16 207.208 261.047 240.733 272.786 256.065C273.736 257.3 277.434 258.409 283.576 258.09C284.121 258.09 284.652 258.03 285.177 257.984C284.939 257.503 284.816 256.973 284.818 256.437C284.818 255.5 285.19 254.601 285.853 253.939C286.515 253.276 287.414 252.904 288.351 252.904C296.073 252.904 300.137 253.568 300.92 257.101C301.146 258.117 301.265 260.666 297.534 262.413C294.745 263.721 288.092 265.221 281.565 265.221Z" fill="#1d72b8"/>
<path d="M204.262 268.269L197.057 265.434L200.855 252.944L208.066 255.773L204.262 268.269Z" fill="#FFC3BD"/>
<path d="M196.885 264.67L205.012 267.858C205.115 267.899 205.201 267.974 205.256 268.071C205.311 268.167 205.333 268.279 205.317 268.389L204.521 273.448C204.5 273.571 204.452 273.687 204.38 273.788C204.309 273.89 204.216 273.974 204.107 274.034C203.999 274.095 203.878 274.13 203.755 274.138C203.631 274.146 203.507 274.126 203.392 274.079C201.353 273.236 198.16 271.842 195.577 270.826C193.99 270.202 190.968 269.206 188.771 268.342C186.573 267.479 187.144 265.195 188.107 265.354C192.482 266.058 194.156 265.308 195.902 264.657C196.219 264.536 196.571 264.54 196.885 264.67Z" fill="#263238"/>
<path opacity="0.2" d="M208.066 255.779L200.855 252.944L198.897 259.385L206.108 262.22L208.066 255.779Z" fill="black"/>
<path d="M217.077 159.101C217.077 159.101 210.556 191.332 208.066 207.228C205.264 225.043 197.861 257.586 197.861 257.586L207.442 261.35C207.442 261.35 221.127 228.031 223.033 211.896C228.777 198.782 240.197 160.19 240.197 160.19L217.077 159.101Z" fill="#1d72b8"/>
<path d="M197.396 257.639L207.914 261.775L209.713 258.588L197.954 253.714L197.396 257.639Z" fill="#263238"/>
<path d="M194.82 264.81C194.453 264.696 194.135 264.462 193.917 264.146C193.856 264.029 193.824 263.899 193.824 263.767C193.824 263.636 193.856 263.506 193.917 263.389C193.944 263.317 193.99 263.254 194.051 263.207C194.112 263.16 194.185 263.131 194.262 263.123C194.959 263.05 196.254 264.75 196.38 264.949C196.394 264.971 196.402 264.996 196.402 265.022C196.402 265.048 196.394 265.074 196.38 265.095C196.366 265.117 196.346 265.134 196.323 265.145C196.299 265.156 196.273 265.159 196.247 265.155C195.76 265.092 195.282 264.976 194.82 264.81ZM194.468 263.422C194.414 263.396 194.355 263.384 194.295 263.389C194.255 263.389 194.209 263.389 194.162 263.502C194.118 263.581 194.095 263.67 194.095 263.761C194.095 263.851 194.118 263.941 194.162 264.02C194.355 264.372 195.019 264.684 195.982 264.843C195.577 264.273 195.062 263.79 194.468 263.422Z" fill="#1d72b8"/>
<path d="M196.234 265.148C196.212 265.141 196.194 265.127 196.181 265.109C195.756 264.604 195.158 263.044 195.517 262.506C195.572 262.422 195.654 262.36 195.75 262.33C195.845 262.3 195.948 262.303 196.041 262.34C196.14 262.365 196.232 262.41 196.312 262.473C196.392 262.536 196.458 262.615 196.506 262.705C196.918 263.442 196.453 264.996 196.433 265.062C196.425 265.086 196.411 265.107 196.393 265.123C196.374 265.139 196.351 265.15 196.327 265.155C196.312 265.162 196.296 265.165 196.28 265.164C196.263 265.163 196.247 265.158 196.234 265.148ZM196.008 262.612H195.955C195.782 262.572 195.743 262.612 195.723 262.672C195.523 262.99 195.849 264.119 196.227 264.737C196.417 264.122 196.417 263.465 196.227 262.851C196.185 262.748 196.108 262.663 196.008 262.612Z" fill="#1d72b8"/>
<path opacity="0.2" d="M231.134 178.616C227.522 183.091 226.094 194.499 226.107 204.007C228.544 197.294 231.34 188.769 233.796 181.026L231.134 178.616Z" fill="black"/>
<path d="M247.621 269.471H239.879L238.849 256.457H246.592L247.621 269.471Z" fill="#FFC3BD"/>
<path d="M239.44 268.82H248.172C248.284 268.82 248.393 268.857 248.48 268.928C248.567 268.998 248.627 269.096 248.65 269.205L249.759 274.199C249.785 274.321 249.783 274.447 249.754 274.568C249.724 274.689 249.668 274.802 249.589 274.898C249.509 274.995 249.41 275.072 249.297 275.124C249.184 275.177 249.06 275.203 248.936 275.201C246.731 275.162 243.258 275.029 240.483 275.029C238.77 275.029 235.596 275.208 233.239 275.208C230.881 275.208 230.583 272.877 231.532 272.665C235.868 271.715 237.156 270.414 238.537 269.166C238.786 268.944 239.107 268.822 239.44 268.82Z" fill="#263238"/>
<path opacity="0.2" d="M246.592 256.457H238.843L239.381 263.17H247.13L246.592 256.457Z" fill="black"/>
<path d="M226.453 159.506C226.453 159.506 230.742 195.422 231.645 208.35C232.9 226.344 237.754 261.868 237.754 261.868H248.046C248.046 261.868 249.148 225.587 247.289 209.446C249.852 195.362 249.042 160.588 249.042 160.588L226.453 159.506Z" fill="#1d72b8"/>
<path d="M237.342 262.087H248.643L249.155 258.469L236.426 258.23L237.342 262.087Z" fill="#263238"/>
<path d="M237.548 269.704C237.165 269.732 236.784 269.632 236.466 269.418C236.367 269.331 236.29 269.222 236.241 269.1C236.193 268.977 236.174 268.845 236.187 268.714C236.187 268.636 236.209 268.559 236.25 268.492C236.291 268.425 236.349 268.371 236.419 268.336C237.043 268.017 238.856 269.132 239.075 269.259C239.098 269.272 239.117 269.291 239.129 269.315C239.141 269.339 239.145 269.365 239.142 269.391C239.136 269.418 239.123 269.442 239.104 269.462C239.085 269.482 239.062 269.497 239.035 269.504C238.549 269.627 238.05 269.694 237.548 269.704ZM236.711 268.542C236.652 268.538 236.593 268.549 236.539 268.575C236.506 268.575 236.466 268.628 236.459 268.727C236.445 268.817 236.454 268.908 236.486 268.993C236.517 269.078 236.57 269.153 236.638 269.212C236.944 269.471 237.681 269.504 238.63 269.312C238.053 268.935 237.408 268.674 236.731 268.542H236.711Z" fill="#1d72b8"/>
<path d="M239.009 269.504H238.942C238.365 269.186 237.236 267.957 237.355 267.326C237.375 267.229 237.429 267.141 237.506 267.078C237.584 267.015 237.681 266.981 237.78 266.981C237.881 266.967 237.983 266.974 238.081 267.003C238.178 267.032 238.268 267.081 238.345 267.147C239.009 267.685 239.135 269.305 239.142 269.372C239.143 269.396 239.138 269.42 239.128 269.442C239.117 269.464 239.102 269.483 239.082 269.498C239.058 269.506 239.033 269.508 239.009 269.504ZM237.873 267.227H237.814C237.641 267.227 237.628 267.333 237.621 267.366C237.548 267.731 238.285 268.694 238.843 269.106C238.802 268.464 238.571 267.849 238.179 267.34C238.093 267.269 237.985 267.229 237.873 267.227Z" fill="#1d72b8"/>
<path d="M230.005 109.978L223.803 109.899C221.718 109.899 219.647 109.832 217.595 109.799C216.971 109.799 216.36 109.759 215.742 109.733C215.782 109.733 215.809 109.66 215.842 109.626C216.28 109.162 216.718 108.684 217.17 108.225C217.396 107.986 217.617 107.754 217.834 107.528C218.04 107.302 218.305 107.05 218.445 106.864L219.009 106.147C219.454 105.58 219.709 104.886 219.738 104.166C219.766 103.445 219.567 102.734 219.169 102.133C218.771 101.532 218.193 101.071 217.519 100.817C216.844 100.563 216.106 100.527 215.41 100.716L214.182 101.048C213.803 101.16 213.425 101.287 213.046 101.413C212.303 101.672 211.572 101.957 210.849 102.269C209.39 102.913 207.981 103.663 206.632 104.514C205.235 105.406 203.914 106.412 202.681 107.522C201.377 108.708 200.196 110.022 199.156 111.446C198.893 111.801 198.67 112.184 198.492 112.588C197.875 114.001 197.845 115.601 198.407 117.037C198.97 118.473 200.08 119.626 201.493 120.244L202.097 120.509C203.461 121.096 204.874 121.563 206.32 121.904C207.582 122.229 208.777 122.442 209.952 122.641C211.127 122.84 212.276 122.999 213.418 123.139C214.56 123.278 215.689 123.384 216.818 123.477C219.069 123.677 221.3 123.776 223.524 123.843C225.749 123.909 227.927 123.909 230.237 123.803C232.039 123.726 233.74 122.949 234.977 121.636C236.214 120.324 236.89 118.581 236.86 116.777C236.831 114.974 236.098 113.254 234.819 111.982C233.54 110.711 231.815 109.99 230.012 109.972L230.005 109.978Z" fill="#FFC3BD"/>
<path d="M233.617 122.096C228.259 128.205 215.364 125.921 215.364 125.921L216.074 110.702C220.494 109.729 225.002 109.207 229.527 109.142C237.096 109.128 237.907 117.196 233.617 122.096Z" fill="#263238"/>
<path d="M219.315 117.415C218.996 119.872 218.651 123.179 218.445 127.627C215.649 141.771 214.607 151.79 217.077 159.101C219.029 161.511 244.467 161.047 249.042 160.582C251.698 154.008 251.977 135.137 252.289 119.274C252.328 117.088 251.583 114.961 250.188 113.277C248.793 111.594 246.841 110.466 244.686 110.098C238.962 109.083 233.122 108.886 227.342 109.514C225.314 109.744 223.421 110.648 221.966 112.08C220.511 113.512 219.577 115.39 219.315 117.415Z" fill="#263238"/>
<path opacity="0.2" d="M243.995 127.07C244.082 131.904 247.588 139.626 251.532 143.544C251.771 139.46 251.924 135.031 252.043 130.562L243.995 127.07Z" fill="black"/>
<path d="M266.16 136.465L265.934 135.934C265.006 133.719 263.921 131.574 262.687 129.513C261.505 127.521 260.23 125.642 258.909 123.829C257.588 122.017 256.186 120.284 254.752 118.597C254.022 117.76 253.298 116.924 252.534 116.114L251.386 114.905L250.164 113.67C248.884 112.406 247.163 111.691 245.364 111.675C243.566 111.659 241.832 112.344 240.53 113.585C239.228 114.825 238.46 116.524 238.389 118.321C238.318 120.119 238.95 121.873 240.151 123.212L240.35 123.431L244.248 127.767C245.576 129.241 246.844 130.742 248.106 132.236C248.716 132.986 249.347 133.736 249.918 134.5C250.489 135.263 251.094 136 251.665 136.757C252.488 137.906 253.285 139.048 253.995 140.17C253.887 140.737 253.749 141.298 253.584 141.85C253.106 143.459 252.546 145.041 251.904 146.591C251.24 148.231 250.536 149.911 249.805 151.565C249.075 153.218 248.292 154.944 247.594 156.604L247.528 156.75C247.222 157.484 247.176 158.3 247.396 159.064C247.617 159.828 248.092 160.493 248.742 160.951C249.392 161.408 250.179 161.63 250.972 161.58C251.766 161.53 252.518 161.211 253.106 160.675C254.57 159.317 255.96 157.881 257.269 156.372C258.597 154.88 259.843 153.309 261.007 151.658C261.598 150.828 262.162 149.964 262.72 149.068C263.3 148.157 263.829 147.215 264.307 146.246C264.845 145.19 265.311 144.098 265.702 142.979C266.211 141.546 266.498 140.044 266.552 138.524C266.569 137.818 266.435 137.116 266.16 136.465Z" fill="#FFC3BD"/>
<path d="M245.138 110.184C254.095 111.718 259.931 123.843 259.931 123.843L249.135 135.456C249.135 135.456 242.913 129.121 239.175 123.252C235.144 116.864 238.723 109.095 245.138 110.184Z" fill="#263238"/>
<path d="M228.777 91.0676C227.276 88.551 226.785 85.0916 229.534 81.5657C228.998 81.6329 228.454 81.5431 227.969 81.3074C227.483 81.0717 227.076 80.7001 226.798 80.2377C229.808 77.775 233.593 76.4577 237.482 76.5193C245.516 76.5193 246.114 79.6202 245.841 81.7384C251.339 82.0903 255.35 96.3862 241.412 98.9161C233.438 90.5165 228.777 91.0676 228.777 91.0676Z" fill="#263238"/>
<path d="M245.337 81.9974C245.337 81.9974 247.574 79.7132 244.792 76.951C245.416 77.122 245.985 77.4516 246.443 77.9078C246.902 78.3639 247.234 78.931 247.408 79.5538C247.8 81.1607 246.718 82.4489 245.337 81.9974Z" fill="#263238"/>
<path d="M242.256 97.1697C242.043 101.572 241.645 106.579 242.382 110.091C241.24 111.891 238.318 113.962 233.086 114.427C231.227 113.371 228.77 110.788 229.626 109.46C231.851 108.033 232.794 103.71 232.156 100.476L242.256 97.1697Z" fill="#FFC3BD"/>
<path opacity="0.2" d="M239.706 97.9998L232.143 100.476C232.4 101.854 232.411 103.265 232.176 104.646C234.434 104.573 237.561 102.874 238.737 101.28C239.119 100.832 239.404 100.308 239.571 99.7431C239.738 99.1779 239.784 98.5839 239.706 97.9998Z" fill="black"/>
<path d="M244.46 90.1977C243.059 95.5961 242.515 98.8297 239.208 101.094C234.235 104.5 227.98 100.682 227.734 94.9785C227.522 89.8392 229.846 81.8712 235.622 80.7357C236.894 80.4806 238.21 80.555 239.446 80.9517C240.681 81.3485 241.794 82.0544 242.68 83.0025C243.565 83.9506 244.194 85.1093 244.505 86.3686C244.817 87.628 244.801 88.9461 244.46 90.1977Z" fill="#FFC3BD"/>
<path d="M243.345 82.4688C240.974 84.1553 238.033 91.3 244.009 94.1685C249.374 89.4541 247.986 82.4688 243.345 82.4688Z" fill="#263238"/>
<path d="M244.713 83.3254C245.728 78.6242 233.863 76.194 230.105 81.6853C228.83 84.992 243.995 87.9136 244.713 83.3254Z" fill="#263238"/>
<path d="M235.861 95.9281C234.628 95.3706 233.307 95.0357 231.957 94.9387C231.938 94.9387 231.92 94.9425 231.902 94.9499C231.885 94.9573 231.869 94.9682 231.856 94.9819C231.843 94.9955 231.833 95.0117 231.826 95.0294C231.82 95.0471 231.817 95.0659 231.818 95.0848C231.825 95.1277 231.847 95.1668 231.879 95.1958C231.912 95.2247 231.953 95.2418 231.997 95.2441C233.291 95.3376 234.558 95.6567 235.742 96.187C235.779 96.2033 235.821 96.2049 235.859 96.1913C235.898 96.1777 235.929 96.1501 235.948 96.114C235.955 96.0962 235.959 96.077 235.958 96.0578C235.958 96.0385 235.953 96.0196 235.945 96.0021C235.937 95.9846 235.926 95.969 235.911 95.9563C235.897 95.9436 235.88 95.9339 235.861 95.9281Z" fill="#263238"/>
<path d="M245.755 96.1007C244.793 97.122 243.466 97.7212 242.063 97.7673C240.204 97.8072 239.733 96.0343 240.629 94.5204C241.439 93.1924 243.378 91.4925 245.064 92.1698C246.751 92.8471 246.924 94.8325 245.755 96.1007Z" fill="#FFC3BD"/>
<path d="M235.875 90.1048C235.788 90.5497 235.483 90.8684 235.211 90.8086C234.938 90.7489 234.759 90.3438 234.846 89.8989C234.932 89.4541 235.237 89.142 235.51 89.2349C235.782 89.3279 235.961 89.64 235.875 90.1048Z" fill="#263238"/>
<path d="M230.848 89.1287C230.762 89.5736 230.456 89.8857 230.184 89.8325C229.912 89.7794 229.726 89.3677 229.812 88.9229C229.899 88.478 230.204 88.1593 230.476 88.219C230.749 88.2788 230.908 88.6838 230.848 89.1287Z" fill="#263238"/>
<path d="M232.402 89.64C231.605 90.8967 230.64 92.0383 229.534 93.033C230.198 93.9161 231.665 93.7435 231.665 93.7435L232.402 89.64Z" fill="#ED847E"/>
<path d="M235.151 87.5218C235.198 87.5115 235.248 87.5133 235.294 87.5273C235.341 87.5412 235.383 87.5668 235.417 87.6015C235.63 87.8592 235.901 88.0627 236.208 88.1955C236.515 88.3282 236.849 88.3863 237.183 88.3651C237.253 88.3555 237.324 88.3738 237.381 88.4159C237.438 88.4581 237.477 88.5209 237.488 88.5909C237.494 88.6254 237.492 88.6608 237.484 88.6947C237.476 88.7287 237.46 88.7606 237.439 88.7886C237.418 88.8165 237.392 88.8398 237.361 88.8572C237.331 88.8746 237.297 88.8856 237.262 88.8897C236.841 88.9236 236.417 88.8564 236.027 88.6935C235.637 88.5307 235.291 88.2769 235.018 87.9534C234.993 87.9293 234.973 87.9004 234.96 87.8685C234.946 87.8365 234.939 87.8022 234.939 87.7675C234.939 87.7328 234.946 87.6985 234.96 87.6666C234.973 87.6346 234.993 87.6057 235.018 87.5816C235.058 87.5523 235.103 87.5319 235.151 87.5218Z" fill="#263238"/>
<path d="M229.294 86.0477C229.239 86.0363 229.19 86.0057 229.155 85.9614C229.133 85.9337 229.116 85.9018 229.106 85.8676C229.097 85.8334 229.094 85.7976 229.098 85.7623C229.103 85.727 229.114 85.693 229.132 85.6622C229.149 85.6313 229.173 85.6044 229.201 85.5829C229.528 85.3157 229.913 85.1299 230.325 85.041C230.737 84.9521 231.165 84.9626 231.572 85.0716C231.639 85.0944 231.695 85.1426 231.727 85.2059C231.759 85.2691 231.766 85.3425 231.745 85.4103C231.718 85.4744 231.669 85.5266 231.607 85.5572C231.544 85.5877 231.473 85.5945 231.406 85.5763C231.081 85.4935 230.742 85.4889 230.415 85.5628C230.089 85.6366 229.784 85.7869 229.527 86.0013C229.496 86.0291 229.458 86.0482 229.417 86.0563C229.376 86.0645 229.334 86.0615 229.294 86.0477Z" fill="#263238"/>
<path d="M250.728 156.412L245.025 156.372L247.973 162.919C247.973 162.919 252.84 161.877 252.574 159.234L250.728 156.412Z" fill="#FFC3BD"/>
<path d="M242.123 160.867L243.059 162.713C243.311 163.205 243.737 163.585 244.254 163.779C244.771 163.973 245.342 163.967 245.855 163.762L247.973 162.919L245.025 156.372L242.76 158.098C242.346 158.411 242.055 158.861 241.938 159.367C241.822 159.873 241.887 160.404 242.123 160.867Z" fill="#FFC3BD"/>
<path d="M207.309 151.591C206.62 151.584 205.948 151.376 205.376 150.992C204.804 150.609 204.355 150.067 204.087 149.432C203.818 148.797 203.741 148.098 203.864 147.42C203.987 146.742 204.305 146.115 204.78 145.615C207.316 142.999 209.607 140.967 211.625 139.194C216.499 134.898 218.179 133.218 218.02 129.998C217.781 128.011 217.359 126.05 216.758 124.141C215.304 118.796 213.657 112.747 216.479 107.893C217.993 105.284 220.563 103.498 224.122 102.581C225.022 102.368 225.969 102.516 226.761 102.993C227.553 103.471 228.127 104.24 228.358 105.135C228.589 106.03 228.46 106.981 227.998 107.782C227.536 108.583 226.779 109.172 225.888 109.421C223.385 110.085 222.781 111.1 222.568 111.446C221.24 113.737 222.522 118.478 223.558 122.282C224.308 124.681 224.81 127.151 225.058 129.653C225.39 136.459 221.373 140.004 216.28 144.493C214.361 146.193 212.177 148.118 209.826 150.535C209.498 150.87 209.107 151.136 208.674 151.318C208.242 151.499 207.778 151.592 207.309 151.591Z" fill="#1d72b8"/>
<path d="M215.058 100.862L220.583 99.4473L219.295 106.512C219.295 106.512 214.321 106.665 213.949 104.042L215.058 100.862Z" fill="#FFC3BD"/>
<path d="M224.461 103.192L224.036 105.038C223.905 105.602 223.568 106.097 223.092 106.425C222.615 106.753 222.033 106.891 221.459 106.811L219.295 106.512L220.583 99.4473L223.119 100.543C223.618 100.758 224.025 101.14 224.27 101.624C224.515 102.109 224.583 102.663 224.461 103.192Z" fill="#FFC3BD"/>
<path d="M205.334 139.973L205.184 139.823C204.512 139.151 203.424 139.151 202.752 139.823L183.172 159.41C182.5 160.082 182.501 161.171 183.172 161.842L183.323 161.993C183.994 162.664 185.083 162.664 185.755 161.992L205.335 142.405C206.006 141.733 206.006 140.644 205.334 139.973Z" fill="#263238"/>
<path d="M215.539 150.165L215.389 150.014C214.717 149.343 213.629 149.343 212.957 150.014L193.373 169.598C192.702 170.27 192.702 171.359 193.373 172.03L193.524 172.18C194.195 172.852 195.284 172.852 195.956 172.18L215.539 152.597C216.211 151.925 216.211 150.836 215.539 150.165Z" fill="#263238"/>
<path d="M189.35 147.264L203.149 133.465C203.591 133.023 204.116 132.672 204.693 132.433C205.271 132.194 205.89 132.07 206.515 132.07C207.141 132.07 207.76 132.194 208.337 132.433C208.915 132.672 209.44 133.023 209.882 133.465L221.944 145.527C222.386 145.969 222.736 146.494 222.976 147.071C223.215 147.649 223.338 148.268 223.338 148.893C223.338 149.518 223.215 150.137 222.976 150.715C222.736 151.293 222.386 151.818 221.944 152.26L208.145 166.059L189.35 147.264Z" fill="#1d72b8"/>
<path opacity="0.7" d="M189.35 147.264L203.149 133.465C203.591 133.023 204.116 132.672 204.693 132.433C205.271 132.194 205.89 132.07 206.515 132.07C207.141 132.07 207.76 132.194 208.337 132.433C208.915 132.672 209.44 133.023 209.882 133.465L221.944 145.527C222.386 145.969 222.736 146.494 222.976 147.071C223.215 147.649 223.338 148.268 223.338 148.893C223.338 149.518 223.215 150.137 222.976 150.715C222.736 151.293 222.386 151.818 221.944 152.26L208.145 166.059L189.35 147.264Z" fill="white"/>
<path opacity="0.2" d="M194.109 142.468L189.328 147.242L208.126 166.04L212.9 161.259C212.71 160.703 212.395 160.199 211.977 159.785L195.583 143.424C195.173 142.995 194.668 142.667 194.109 142.468Z" fill="#1d72b8"/>
<path d="M188.522 144.834L188.18 145.177C186.722 146.635 186.722 148.997 188.18 150.455L204.918 167.193C206.375 168.65 208.738 168.65 210.195 167.193L210.538 166.85C211.995 165.393 211.995 163.03 210.538 161.573L193.8 144.834C192.342 143.377 189.98 143.377 188.522 144.834Z" fill="#1d72b8"/>
</g>
<defs>
<clipPath id="clip0_9849_93618">
<rect width="332" height="332" fill="white" transform="translate(0.5)"/>
</clipPath>
</defs>
</svg>
