<svg width="16" height="16" viewBox="0 0 16 16" fill="none" xmlns="http://www.w3.org/2000/svg">
<g id="g-calendar">
<path id="Vector" d="M14.3159 7.62939e-06H11.799V3.66701H15.4819V1.03401C15.4829 1.03401 15.2999 0.100008 14.3159 7.62939e-06Z" fill="#1967D2"/>
<path id="Vector_2" d="M11.7999 15.55V15.559V15.567L15.4829 11.9H15.4499L11.7999 15.55Z" fill="#1967D2"/>
<path id="Vector_3" d="M15.483 11.9V11.867L15.45 11.9H15.483Z" fill="#FBBC05"/>
<path id="Vector_4" d="M15.4829 3.667H11.7999V11.867H15.4829V3.667Z" fill="#FBBC05"/>
<path id="Vector_5" d="M15.4499 11.9H11.7999V15.55L15.4499 11.9Z" fill="#EA4335"/>
<path id="Vector_6" d="M11.7999 11.9H15.4499L15.4829 11.867H11.7999V11.9Z" fill="#EA4335"/>
<path id="Vector_7" d="M11.791 15.559H11.8V15.55L11.791 15.559Z" fill="#34A853"/>
<path id="Vector_8" d="M3.59998 11.867V15.559H11.791L11.8 11.867H3.59998Z" fill="#34A853"/>
<path id="Vector_9" d="M11.8 11.9V11.867L11.791 15.559L11.8 15.55V11.9Z" fill="#34A853"/>
<path id="Vector_10" d="M-6.10352e-05 11.867V14.434C0.032939 15.267 0.928938 15.559 0.928938 15.559H3.59994V11.867H-6.10352e-05Z" fill="#188038"/>
<path id="Vector_11" d="M3.59994 3.667H11.7999V-3.8147e-06H1.03294C1.03294 -3.8147e-06 0.065939 0.0999962 -6.10352e-05 1.133V11.867H3.59994V3.667Z" fill="#4285F4"/>
<g id="31">
<path d="M6.28267 10.2072C6.09507 10.2072 5.91417 10.1826 5.73997 10.1335C5.57024 10.0844 5.41391 10.0107 5.27097 9.91241C5.12804 9.80968 5.00074 9.68238 4.88907 9.53051C4.78187 9.37864 4.69924 9.20221 4.64117 9.00121L5.46527 8.67291C5.52334 8.89625 5.62161 9.06598 5.76007 9.18211C5.89854 9.29378 6.07274 9.34961 6.28267 9.34961C6.37647 9.34961 6.46581 9.33621 6.55067 9.30941C6.63554 9.27815 6.70924 9.23571 6.77177 9.18211C6.83431 9.12851 6.88344 9.06598 6.91917 8.99451C6.95937 8.91858 6.97947 8.83371 6.97947 8.73991C6.97947 8.54338 6.90577 8.38928 6.75837 8.27761C6.61544 8.16594 6.41667 8.11011 6.16207 8.11011H5.76677V7.31281H6.12857C6.21791 7.31281 6.30501 7.30165 6.38987 7.27931C6.47474 7.25698 6.54844 7.22348 6.61097 7.17881C6.67797 7.12968 6.72934 7.06938 6.76507 6.99791C6.80527 6.92198 6.82537 6.83488 6.82537 6.73661C6.82537 6.58474 6.77177 6.46191 6.66457 6.36811C6.55737 6.26984 6.41221 6.22071 6.22907 6.22071C6.03254 6.22071 5.88067 6.27431 5.77347 6.38151C5.67074 6.48424 5.59927 6.60038 5.55907 6.72991L4.75507 6.40161C4.79527 6.28994 4.85557 6.17604 4.93597 6.05991C5.01637 5.93931 5.11687 5.83211 5.23747 5.73831C5.36254 5.64004 5.50771 5.56188 5.67297 5.50381C5.83824 5.44128 6.02807 5.41001 6.24247 5.41001C6.46134 5.41001 6.66011 5.44128 6.83877 5.50381C7.02191 5.56634 7.17824 5.65344 7.30777 5.76511C7.43731 5.87231 7.53781 6.00184 7.60927 6.15371C7.68074 6.30111 7.71647 6.46191 7.71647 6.63611C7.71647 6.77011 7.69861 6.89071 7.66287 6.99791C7.63161 7.10511 7.58917 7.20115 7.53557 7.28601C7.48197 7.37088 7.41944 7.44458 7.34797 7.50711C7.28097 7.56518 7.21174 7.61208 7.14027 7.64781V7.70141C7.35467 7.78628 7.53111 7.92251 7.66957 8.11011C7.81251 8.29771 7.88397 8.53445 7.88397 8.82031C7.88397 9.02131 7.84601 9.20668 7.77007 9.37641C7.69414 9.54168 7.58471 9.68685 7.44177 9.81191C7.30331 9.93698 7.13581 10.033 6.93927 10.1C6.74274 10.1715 6.52387 10.2072 6.28267 10.2072Z" fill="#4285F4"/>
<path d="M9.48397 10.1V6.54901L8.67327 6.89071L8.35167 6.14701L9.69837 5.51721H10.3617V10.1H9.48397Z" fill="#4285F4"/>
</g>
</g>
</svg>
