<svg width="18" height="16" viewBox="0 0 18 16" fill="none" xmlns="http://www.w3.org/2000/svg">
<g id="g-drive">
<path id="Vector" d="M8.9041 5.12792L6.1031 0.272923C6.1961 0.179923 6.3031 0.118923 6.4101 0.0779228C5.5841 0.344923 5.2051 1.25592 5.2051 1.25592L0.0880999 10.1229C0.0160999 10.4009 -0.00390186 10.6519 0.00509815 10.8729H5.5901L8.9041 5.12792Z" fill="#34A853"/>
<path id="Vector_2" d="M8.90411 5.12792L12.2181 10.8729H17.8031C17.8121 10.6519 17.7921 10.4009 17.7201 10.1229L12.6031 1.25592C12.6031 1.25592 12.2231 0.344923 11.3981 0.0779228C11.5041 0.118923 11.6121 0.179923 11.7051 0.272923L8.90411 5.12792Z" fill="#FBBC05"/>
<path id="Vector_3" d="M8.90412 5.12792L11.7051 0.27292C11.6121 0.17992 11.5041 0.11892 11.3981 0.0779203C11.2761 0.0389203 11.1451 0.0129204 11.0031 0.00592041H10.8551H6.95312H6.80512C6.66412 0.0119204 6.53212 0.0379203 6.41012 0.0779203C6.30412 0.11892 6.19612 0.17992 6.10312 0.27292L8.90412 5.12792Z" fill="#188038"/>
<path id="Vector_4" d="M5.5911 10.8729L2.8221 15.6729C2.8221 15.6729 2.7301 15.6289 2.6051 15.5379C2.9981 15.8349 3.3801 15.8979 3.3801 15.8979H14.2551C14.8551 15.8979 14.9801 15.6729 14.9801 15.6729C14.9821 15.6719 14.9831 15.6709 14.9851 15.6699L12.2181 10.8729H5.5911Z" fill="#4285F4"/>
<path id="Vector_5" d="M5.5911 10.8729H0.00610352C0.0341035 11.5249 0.322104 11.9059 0.322104 11.9059L0.532104 12.2639C0.547104 12.2849 0.556104 12.2969 0.556104 12.2969L1.0131 13.0849L2.0391 14.8389C2.0691 14.9099 2.1041 14.9749 2.1411 15.0369C2.1551 15.0579 2.1681 15.0809 2.1831 15.1009C2.1871 15.1069 2.1911 15.1129 2.1951 15.1189C2.3221 15.2949 2.4641 15.4309 2.6061 15.5379C2.7311 15.6299 2.8231 15.6729 2.8231 15.6729L5.5911 10.8729Z" fill="#1967D2"/>
<path id="Vector_6" d="M12.2181 10.8729H17.8031C17.7751 11.5249 17.4871 11.9059 17.4871 11.9059L17.2771 12.2639C17.2621 12.2849 17.2531 12.2969 17.2531 12.2969L16.7961 13.0849L15.7701 14.8389C15.7401 14.9099 15.7051 14.9749 15.6681 15.0369C15.6541 15.0579 15.6411 15.0809 15.6261 15.1009C15.6221 15.1069 15.6181 15.1129 15.6141 15.1189C15.4871 15.2949 15.3451 15.4309 15.2031 15.5379C15.0781 15.6299 14.9861 15.6729 14.9861 15.6729L12.2181 10.8729Z" fill="#EA4335"/>
</g>
</svg>
