<svg width="12" height="17" viewBox="0 0 12 17" fill="none" xmlns="http://www.w3.org/2000/svg">
<path d="M1.11068 0C0.497269 0 0 0.497264 0 1.11067V15.1792C0 15.7926 0.497268 16.2898 1.11068 16.2898H10.7366C11.35 16.2898 11.8473 15.7926 11.8473 15.1792V4.44268L7.40453 0H1.11068Z" fill="#F4B70A"/>
<path d="M11.8472 8.23774V4.44294L11.1993 3.79505H8.0748C7.82742 3.79505 7.70353 4.09414 7.87845 4.26906L11.8472 8.23774Z" fill="url(#paint0_linear_13448_19851)"/>
<path d="M7.40543 0L11.8481 4.44268H8.51611C7.90269 4.44268 7.40543 3.94542 7.40543 3.33201V0Z" fill="#FADC87"/>
<g clip-path="url(#clip0_13448_19851)">
<path d="M3.33329 9.66667C3.41825 9.66676 3.49997 9.69929 3.56175 9.75762C3.62352 9.81594 3.6607 9.89565 3.66568 9.98046C3.67066 10.0653 3.64306 10.1488 3.58853 10.2139C3.534 10.2791 3.45665 10.321 3.37229 10.331L3.33329 10.3333H2.99996C2.915 10.3332 2.83328 10.3007 2.7715 10.2424C2.70972 10.1841 2.67254 10.1043 2.66757 10.0195C2.66259 9.93472 2.69018 9.85121 2.74471 9.78606C2.79924 9.7209 2.87659 9.67903 2.96096 9.669L2.99996 9.66667H3.33329Z" fill="white"/>
<path d="M6 6.66667C6.08164 6.66668 6.16045 6.69665 6.22146 6.7509C6.28247 6.80516 6.32145 6.87992 6.331 6.961L6.33333 7V7.33333C6.33324 7.41829 6.30071 7.50001 6.24238 7.56179C6.18406 7.62357 6.10435 7.66074 6.01954 7.66572C5.93472 7.6707 5.85121 7.64311 5.78606 7.58858C5.7209 7.53405 5.67903 7.4567 5.669 7.37233L5.66667 7.33333V7C5.66667 6.91159 5.70179 6.82681 5.7643 6.7643C5.82681 6.70179 5.91159 6.66667 6 6.66667Z" fill="white"/>
<path d="M8.99996 9.66667C9.08492 9.66676 9.16663 9.69929 9.22841 9.75762C9.29019 9.81594 9.32737 9.89565 9.33235 9.98046C9.33733 10.0653 9.30973 10.1488 9.2552 10.2139C9.20067 10.2791 9.12332 10.321 9.03896 10.331L8.99996 10.3333H8.66662C8.58166 10.3332 8.49995 10.3007 8.43817 10.2424C8.37639 10.1841 8.33921 10.1043 8.33423 10.0195C8.32925 9.93472 8.35685 9.85121 8.41138 9.78606C8.46591 9.7209 8.54326 9.67903 8.62762 9.669L8.66662 9.66667H8.99996Z" fill="white"/>
<path d="M3.63112 7.631C3.68852 7.57361 3.76489 7.53913 3.8459 7.53404C3.92691 7.52894 4.00699 7.55358 4.07112 7.60333L4.10246 7.631L4.33579 7.86433C4.39557 7.92432 4.43028 8.00481 4.43287 8.08946C4.43545 8.17411 4.40572 8.25657 4.34971 8.32009C4.2937 8.38361 4.21561 8.42344 4.1313 8.43147C4.04699 8.4395 3.96279 8.41514 3.89579 8.36333L3.86446 8.33567L3.63112 8.10233C3.56863 8.03982 3.53353 7.95505 3.53353 7.86667C3.53353 7.77828 3.56863 7.69351 3.63112 7.631Z" fill="white"/>
<path d="M7.89769 7.631C7.95768 7.57122 8.03817 7.53651 8.12282 7.53392C8.20747 7.53134 8.28993 7.56107 8.35345 7.61708C8.41697 7.67309 8.4568 7.75118 8.46483 7.83549C8.47286 7.9198 8.4485 8.004 8.39669 8.071L8.36903 8.10233L8.13569 8.33567C8.07571 8.39545 7.99522 8.43016 7.91057 8.43274C7.82592 8.43533 7.74346 8.4056 7.67993 8.34958C7.61641 8.29357 7.57659 8.21548 7.56856 8.13118C7.56053 8.04687 7.58489 7.96266 7.63669 7.89567L7.66436 7.86433L7.89769 7.631Z" fill="white"/>
<path d="M6.66667 12C6.75507 12 6.83986 12.0351 6.90237 12.0976C6.96488 12.1601 7 12.2449 7 12.3333C7 12.5985 6.89464 12.8529 6.70711 13.0404C6.51957 13.228 6.26522 13.3333 6 13.3333C5.73478 13.3333 5.48043 13.228 5.29289 13.0404C5.10536 12.8529 5 12.5985 5 12.3333C5.00001 12.2517 5.02999 12.1729 5.08424 12.1119C5.13849 12.0509 5.21325 12.0119 5.29433 12.0023L5.33333 12H6.66667Z" fill="white"/>
<path d="M6 8C6.41976 8 6.82889 8.13207 7.16942 8.37752C7.50995 8.62296 7.76463 8.96932 7.89737 9.36754C8.03011 9.76577 8.03419 10.1957 7.90903 10.5963C7.78387 10.997 7.53581 11.3481 7.2 11.6C7.15406 11.6345 7.09997 11.6566 7.043 11.664L7 11.6667H5C4.92788 11.6667 4.8577 11.6433 4.8 11.6C4.46419 11.3481 4.21613 10.997 4.09097 10.5963C3.96581 10.1957 3.96989 9.76577 4.10263 9.36754C4.23537 8.96932 4.49005 8.62296 4.83058 8.37752C5.17111 8.13207 5.58024 8 6 8Z" fill="white"/>
<path d="M3.33329 9.66667C3.41825 9.66676 3.49997 9.69929 3.56175 9.75762C3.62352 9.81594 3.6607 9.89565 3.66568 9.98046C3.67066 10.0653 3.64306 10.1488 3.58853 10.2139C3.534 10.2791 3.45665 10.321 3.37229 10.331L3.33329 10.3333H2.99996C2.915 10.3332 2.83328 10.3007 2.7715 10.2424C2.70972 10.1841 2.67254 10.1043 2.66757 10.0195C2.66259 9.93472 2.69018 9.85121 2.74471 9.78606C2.79924 9.7209 2.87659 9.67903 2.96096 9.669L2.99996 9.66667H3.33329Z" stroke="white"/>
<path d="M6 6.66667C6.08164 6.66668 6.16045 6.69665 6.22146 6.7509C6.28247 6.80516 6.32145 6.87992 6.331 6.961L6.33333 7V7.33333C6.33324 7.41829 6.30071 7.50001 6.24238 7.56179C6.18406 7.62357 6.10435 7.66074 6.01954 7.66572C5.93472 7.6707 5.85121 7.64311 5.78606 7.58858C5.7209 7.53405 5.67903 7.4567 5.669 7.37233L5.66667 7.33333V7C5.66667 6.91159 5.70179 6.82681 5.7643 6.7643C5.82681 6.70179 5.91159 6.66667 6 6.66667Z" stroke="white"/>
<path d="M8.99996 9.66667C9.08492 9.66676 9.16663 9.69929 9.22841 9.75762C9.29019 9.81594 9.32737 9.89565 9.33235 9.98046C9.33733 10.0653 9.30973 10.1488 9.2552 10.2139C9.20067 10.2791 9.12332 10.321 9.03896 10.331L8.99996 10.3333H8.66662C8.58166 10.3332 8.49995 10.3007 8.43817 10.2424C8.37639 10.1841 8.33921 10.1043 8.33423 10.0195C8.32925 9.93472 8.35685 9.85121 8.41138 9.78606C8.46591 9.7209 8.54326 9.67903 8.62762 9.669L8.66662 9.66667H8.99996Z" stroke="white"/>
<path d="M3.63112 7.631C3.68852 7.57361 3.76489 7.53913 3.8459 7.53404C3.92691 7.52894 4.00699 7.55358 4.07112 7.60333L4.10246 7.631L4.33579 7.86433C4.39557 7.92432 4.43028 8.00481 4.43287 8.08946C4.43545 8.17411 4.40572 8.25657 4.34971 8.32009C4.2937 8.38361 4.21561 8.42344 4.1313 8.43147C4.04699 8.4395 3.96279 8.41514 3.89579 8.36333L3.86446 8.33567L3.63112 8.10233C3.56863 8.03982 3.53353 7.95505 3.53353 7.86667C3.53353 7.77828 3.56863 7.69351 3.63112 7.631Z" stroke="white"/>
<path d="M7.89769 7.631C7.95768 7.57122 8.03817 7.53651 8.12282 7.53392C8.20747 7.53134 8.28993 7.56107 8.35345 7.61708C8.41697 7.67309 8.4568 7.75118 8.46483 7.83549C8.47286 7.9198 8.4485 8.004 8.39669 8.071L8.36903 8.10233L8.13569 8.33567C8.07571 8.39545 7.99522 8.43016 7.91057 8.43274C7.82592 8.43533 7.74346 8.4056 7.67993 8.34958C7.61641 8.29357 7.57659 8.21548 7.56856 8.13118C7.56053 8.04687 7.58489 7.96266 7.63669 7.89567L7.66436 7.86433L7.89769 7.631Z" stroke="white"/>
<path d="M6.66667 12C6.75507 12 6.83986 12.0351 6.90237 12.0976C6.96488 12.1601 7 12.2449 7 12.3333C7 12.5985 6.89464 12.8529 6.70711 13.0404C6.51957 13.228 6.26522 13.3333 6 13.3333C5.73478 13.3333 5.48043 13.228 5.29289 13.0404C5.10536 12.8529 5 12.5985 5 12.3333C5.00001 12.2517 5.02999 12.1729 5.08424 12.1119C5.13849 12.0509 5.21325 12.0119 5.29433 12.0023L5.33333 12H6.66667Z" stroke="white"/>
<path d="M6 8C6.41976 8 6.82889 8.13207 7.16942 8.37752C7.50995 8.62296 7.76463 8.96932 7.89737 9.36754C8.03011 9.76577 8.03419 10.1957 7.90903 10.5963C7.78387 10.997 7.53581 11.3481 7.2 11.6C7.15406 11.6345 7.09997 11.6566 7.043 11.664L7 11.6667H5C4.92788 11.6667 4.8577 11.6433 4.8 11.6C4.46419 11.3481 4.21613 10.997 4.09097 10.5963C3.96581 10.1957 3.96989 9.76577 4.10263 9.36754C4.23537 8.96932 4.49005 8.62296 4.83058 8.37752C5.17111 8.13207 5.58024 8 6 8Z" stroke="white"/>
</g>
<defs>
<linearGradient id="paint0_linear_13448_19851" x1="9.82187" y1="8.23774" x2="9.82187" y2="3.7025" gradientUnits="userSpaceOnUse">
<stop stop-color="#F4B70A"/>
<stop offset="1" stop-color="#E2930A"/>
</linearGradient>
<clipPath id="clip0_13448_19851">
<rect x="2" y="6" width="8" height="8" fill="white"/>
</clipPath>
</defs>
</svg>
