<svg width="19" height="14" viewBox="0 0 19 14" fill="none" xmlns="http://www.w3.org/2000/svg">
<g id="gmail">
<path id="Vector" d="M14.3269 1.20596L9.47192 4.90596L4.50592 1.20596V1.20696L4.51192 1.21196V6.39296L9.41592 10.173L14.3269 6.53896V1.20596Z" fill="#EA4335"/>
<path id="Vector_2" d="M15.6019 0.305956L14.3269 1.20596V6.53896L18.3389 3.53096V1.71896C18.3389 1.71896 17.8519 -0.869044 15.6019 0.305956Z" fill="#FBBC05"/>
<path id="Vector_3" d="M14.3269 6.53896V13.456H17.4019C17.4019 13.456 18.2769 13.368 18.3399 12.394V3.53096L14.3269 6.53896Z" fill="#34A853"/>
<path id="Vector_4" d="M4.51192 13.462V6.39296L4.50592 6.38796L4.51192 13.462Z" fill="#C5221F"/>
<path id="Vector_5" d="M4.50588 1.20696L3.23788 0.311959C0.987878 -0.863041 0.499878 1.72396 0.499878 1.72396V3.53596L4.50588 6.38796V1.20696Z" fill="#C5221F"/>
<path id="Vector_6" d="M4.50592 1.20695V6.38796L4.51192 6.39296V1.21196L4.50592 1.20695Z" fill="#C5221F"/>
<path id="Vector_7" d="M0.499878 3.53695V12.4C0.561878 13.375 1.43788 13.462 1.43788 13.462H4.51288L4.50588 6.38795L0.499878 3.53695Z" fill="#4285F4"/>
</g>
</svg>
